# xmcd CD database file
#
# Track frame offsets:
#	150
#	30067
#	69815
#	98637
#	117503
#	156254
#	179751
#	199286
#
# Disc length: 3031 seconds
#
# Revision: 1
# Processed by: cddbd v1.5.2PL0 Copyright (c) Steve Scherf et al.
# Submitted via: CDex 1.70beta2
#
DISCID=630bd508
DTITLE=Andy Smith, Alain Koetsier, David Hodkinson - Master Recital
DYEAR=2005
DGENRE=Jazz
TTITLE0=Bright Size Life
TTITLE1=Question and Answer
TTITLE2=James
TTITLE3=Always and Forever
TTITLE4=Unity Village
TTITLE5=Soul Cowboy
TTITLE6=Never Too Far Away
TTITLE7=What Do You Want
EXTD=YEAR: 2005
EXTT0=
EXTT1=
EXTT2=
EXTT3=
EXTT4=
EXTT5=
EXTT6=
EXTT7=
PLAYORDER=
